<svg width="10" height="14" viewBox="0 0 10 14" fill="none" xmlns="http://www.w3.org/2000/svg">
<path d="M0.54 10.588C1.458 12.19 3.114 13.216 5.13 13.216C7.506 13.216 9.288 11.83 9.288 9.652C9.288 8.05 8.352 7.06 6.354 6.178L5.004 5.584C3.996 5.134 3.618 4.846 3.618 4.216C3.618 3.478 4.248 3.064 5.094 3.064C5.994 3.064 6.75 3.514 7.362 4.432L9.018 3.154C8.28 1.786 6.912 0.903999 5.094 0.903999C2.844 0.903999 1.152 2.236 1.152 4.27C1.152 5.854 2.214 6.88 4.032 7.69L5.31 8.266C6.444 8.788 6.822 9.04 6.822 9.742C6.822 10.552 6.192 11.056 5.13 11.056C3.834 11.056 2.988 10.39 2.214 9.328L0.54 10.588Z" fill="#46A358"/>
</svg>
