<svg width="8" height="12" viewBox="0 0 8 12" fill="none" xmlns="http://www.w3.org/2000/svg">
<path fill-rule="evenodd" clip-rule="evenodd" d="M0.729609 0.367963C0.94062 0.0115261 1.40063 -0.106365 1.75706 0.104645L1.375 0.750031C1.75706 0.104645 1.75693 0.104565 1.75706 0.104645L1.76241 0.107822L1.77526 0.11549L1.82247 0.143929C1.86318 0.168587 1.92199 0.204496 1.99631 0.250661C2.14489 0.342952 2.35584 0.476453 2.60844 0.643168C3.11238 0.975769 3.78805 1.44448 4.46708 1.98499C5.14171 2.52199 5.84261 3.14788 6.38163 3.79687C6.89694 4.4173 7.375 5.1883 7.375 6.00003C7.375 6.81163 6.89689 7.58255 6.38162 8.2029C5.84261 8.85183 5.14173 9.47773 4.46711 10.0148C3.78809 10.5553 3.11243 11.0241 2.60849 11.3568C2.3559 11.5235 2.14495 11.657 1.99637 11.7493C1.92205 11.7955 1.86324 11.8314 1.82253 11.8561L1.77532 11.8845L1.76248 11.8922L1.75775 11.895C1.75762 11.8951 1.75713 11.8954 1.375 11.25L1.75775 11.895C1.40134 12.1061 0.940698 11.9886 0.729649 11.6322C0.518621 11.2758 0.636421 10.8158 0.992757 10.6047C0.992791 10.6047 0.992723 10.6048 0.992757 10.6047L0.99512 10.6033L1.00479 10.5976L1.04538 10.5731C1.08157 10.5512 1.13556 10.5182 1.20479 10.4752C1.34332 10.3891 1.54253 10.2631 1.78212 10.1049C2.26256 9.78776 2.8994 9.34552 3.53288 8.84123C4.17076 8.33343 4.78238 7.78066 5.22775 7.24447C5.69686 6.6797 5.875 6.25906 5.875 6.00003C5.875 5.74077 5.6968 5.32001 5.22773 4.75526C4.78238 4.21906 4.17078 3.66632 3.53291 3.15858C2.89944 2.65434 2.26261 2.21217 1.78218 1.89508C1.54259 1.73695 1.34338 1.61091 1.20485 1.52486C1.13562 1.48186 1.08163 1.4489 1.04545 1.42699L1.00486 1.40253L0.995188 1.39676L0.993116 1.39553C0.993073 1.3955 0.99316 1.39556 0.993116 1.39553M0.729609 0.367963C0.518624 0.724356 0.636781 1.18448 0.993116 1.39553Z" fill="#3D3D3D"/>
</svg>
